<svg xmlns="http://www.w3.org/2000/svg" viewBox="0 0 396.14 227.78"><defs><style>.cls-1{fill:#f0f0f0;}.cls-2{fill:#b30838;}.cls-3{fill:#006857;}.cls-4{font-size:109px;}.cls-4,.cls-5{font-family:OpenSans, Open Sans;}.cls-5{font-size:100px;}.cls-6{fill:none;stroke:#000;stroke-miterlimit:10;stroke-width:7px;}</style></defs><title>Asset 2</title><g id="Layer_2" data-name="Layer 2"><g id="Layer_1-2" data-name="Layer 1"><path class="cls-1" d="M38.11,41.42A73.23,73.23,0,0,1,53.86,48,6.12,6.12,0,0,0,61.13,47a9,9,0,0,0,2.58-6c.31-2.52-2.07-5.2-4.4-5.78-5.24-1.32-10,1-12.82,5.5s-1.32,10.33-4.33,14.42H52.52c-2.41-5.32-5.64-11.91-3.72-17.86,2.17-6.72,8.31-5.8,13.85-3.67,3,1.14,6.68-1.27,7.38-4.19,2-8.17-4.38-13.15-11.77-14.32s-10.77,9.34-3.19,11.57l3.63,1.07A6.13,6.13,0,0,0,65.48,25c-.48.77-1.81.56-.07.4A13.16,13.16,0,0,0,68,24.46c2-.72,4-1.44,6.06-2.13,3.75-1.29,7.53-2.52,11.35-3.59S93.08,16.73,97,16c1.15-.2,3.32-.92,4.28-.22s1.42,3.53,1.77,4.67C107.9,36.24,112.69,52,117.51,67.8a213.07,213.07,0,0,0,7.73,21.67c3,7,7.38,13.36,10.29,20.32s2.71,15.82,4.23,23.27a179.77,179.77,0,0,0,6.37,23.23c1.41,4,3,8,4.57,12,.75,2,1.48,4,2.06,6a12.52,12.52,0,0,1,.71,2.91c0,.12,1.58,0-.47.14-3.45.25-6.42.29-9.33,2.46a9.14,9.14,0,0,0-3.59,10c.6,2.74,3.24,4.17,5.79,4.4l2.62.24-3-11.18a118.06,118.06,0,0,1-47,9.77c-1.23,0-4.38-.67-5.43-.12-1.37.71-.52-.3,0,1.3a15.22,15.22,0,0,1-.38-2.51A57.18,57.18,0,0,0,90,180.37c-1.21-3.34-3.54-6.72-4.24-10.2s-.2-6.33-2.49-9.33a21,21,0,0,1-4-8.12c-1.15-3.9-2.16-7.84-3.06-11.8-.84-3.68-1.66-7-3.73-10.21-2.28-3.53-2.62-7.18-3.17-11.28C67,103.19,60.81,88.69,56.43,73.07c-2.1-7.49-3.24-15.75-.21-23.17,2.91-7.1,11.28-10.38,12.47-18.36.76-5.09-5.83-11.16-10-5.84-2.55,3.23-5.63,5.5-9.85,5.89l1.6,11.78c11.33-2.91,19.52-12,30.85-15a83.91,83.91,0,0,1,8.3-1.63c1.43-.23,8.66-2,9.6-.67.25.35-1.16,4.35-1.21,5.62A24,24,0,0,0,100,41.45l11-4.63c-2.47-3.82-5.11-10.32-9.33-12.5a8.78,8.78,0,0,0-6.31-.58,30,30,0,0,0-3.08,1.32l-1,.47c-1.34.13-1.32.32.07.57l1.75,4.24q-4.95.48-3,2.7a9.7,9.7,0,0,1,.62,2.05c.1.71.28,2.47-.27,3-.39.34-1.53-7.22-1.53-8,0-3-2.74-6.34-6-6C72.38,25.16,64.74,32.78,64,43.38c-.39,5.5,6.67,7.49,10.24,4.24A183.29,183.29,0,0,0,89,32.59a6,6,0,0,0-7.27-9.42A40.65,40.65,0,0,0,62.42,42.85l11,4.62c2-4.9,2.9-10.51-.41-15.06-2.62-3.59-7.84-4.11-10.36,0a100.16,100.16,0,0,0-9.08,19c-2,5.6-4.06,12.94,3.38,15.28,3.88,1.21,7.43-2,7.6-5.79a48.74,48.74,0,0,0-1.71-15c-1.3-4.77-8.58-6.12-11-1.43-6.2,12.16-1.58,24.27,4,35.65,2.63,5.34,11.46,2.79,11.18-3L66.14,58c-.37-7.9-11.08-7.51-12,0a34.89,34.89,0,0,0,5.13,22.68c2.21,3.6,6.37,3.61,9.42,1.22C76.49,75.74,79,64.11,81.06,54.94c1.7-7.48,5.86-20.49-1.41-26.31-2.33-1.86-6.26-2.72-8.49,0C62.71,39,59.74,52.69,64.33,65.43c2,5.49,9.75,5.9,11.57,0,1.37-4.45,2.19-9.31-.17-13.62a10.33,10.33,0,0,0-10.67-5.47,9,9,0,0,0-1.85,17.29c7.64,3,17.65-1.65,24.48-5a66.6,66.6,0,0,0,22.46-18.08c3.19-4,1.3-10.09-4.24-10.24-7.65-.21-12.49,6-16.72,11.53A81.47,81.47,0,0,0,78.36,61.52c-1.19,3,1.31,6.63,4.19,7.38,18.19,4.77,33.51-10.32,30.82-28.4L101.8,43.69,109,62.77l11.57-3.19-12.25-30.9c-2.86-7.22-12.74-4.47-11.57,3.19a236.67,236.67,0,0,0,12.34,47.35l11-4.62c-7.88-11.18-15.13-23.47-16.51-37.35l-11.18,3a107,107,0,0,1,9.29,22.36c.56,2,1.08,4,1.53,6l.38,1.74q.33,4.77,7-.19c.16-1.15-1.36-3.5-1.82-4.7l-2.51-6.61c-1.72-4.53-8.3-6.31-11-1.43A57.17,57.17,0,0,0,89,74.86l11.79,1.59-.56-22.12L88.46,55.92a24.7,24.7,0,0,1-4,18.94l11,1.44a47.9,47.9,0,0,1-.26-15.16c.44-3-.49-5.82-3.47-7.08-2.52-1.06-6.26-.27-7.5,2.46a189.49,189.49,0,0,0-14.24,45.06l11.79,1.6a302.26,302.26,0,0,0,1.85-35.07c0-7.87-11.26-7.55-12,0l-2.8,28.4,11.78-1.59a67.17,67.17,0,0,1-5-20.77c-.45-6.35-10.32-8.62-11.78-1.6a182.49,182.49,0,0,0-3,26l11.78-1.6a124.3,124.3,0,0,1-4-15.55C67.32,74.78,56.21,76.21,56.76,83a255.79,255.79,0,0,0,6.67,40.8c1.35,5.42,10.64,6,11.57,0a45.93,45.93,0,0,1,12-25l-9.42-7.27-13.12,31c-2.39,5.66,4.51,12.93,9.42,7.27a461.45,461.45,0,0,0,35.15-46c3.73-5.59-5-12.55-9.42-7.27L85.62,93.32l10.24,4.24,1.63-17.84C98.1,73,87.18,71.58,85.7,78.13L81.14,98.38,92.93,100,92,89.46,80.2,91.05a97.89,97.89,0,0,0,8.65,20.87c3.07,5.42,7.13,11.28,14.13,10.8a6.15,6.15,0,0,0,6-6q.39-19.06-.31-38.12L98.43,82.84l13.15,14.5c3.74,4.12,9.9.61,10.24-4.24a45.06,45.06,0,0,0-1.92-16.48c-1.91-6.25-12.14-5.41-11.78,1.59a41.54,41.54,0,0,0,11.7,27.2c3.05,3.17,9,1.74,10-2.65a42.73,42.73,0,0,0-.16-20.51c-1.38-5.49-10.47-5.94-11.57,0l-.49,2.69H129.2a224.73,224.73,0,0,1-6.67-25C121,52.22,109.9,55.68,111,63.12c1.64,11.47,7.83,22.16,11.39,33.13a225.44,225.44,0,0,1,8.23,34.57l11-4.62L124.69,94.92c-2.72-5-11.7-3-11.18,3l2.09,24.31,11.79-1.59a251.89,251.89,0,0,1-6.55-31.33c-.93-6.4-9.83-5-11.58,0a43.71,43.71,0,0,0-.75,26.58c1.76,6.28,12.51,5.34,11.78-1.59a12.91,12.91,0,0,0-3.19-7.67c-2.91-3.53-9-1.44-10,2.65l-2.17,8.56,7.38-4.19-11.54-4.05c-4.64-1.63-8.19,3.25-7.38,7.38l2,10.29,10-5.84Q99.12,115,92.59,108.8c-3.07-2.92-9.11-2-10,2.65a50.24,50.24,0,0,0,0,20.4c1.35,6.61,12.08,5.15,11.79-1.6l-.64-14.53c-.23-5.44-8.55-8.82-11.18-3a55.3,55.3,0,0,0-5.19,22.91L89.15,134a66.82,66.82,0,0,0-4.66-12.59c-2.14-4.47-10.1-3.57-11,1.43L69.38,146.9l11.79,1.6.16-10.56h-12A210.63,210.63,0,0,0,84.8,194.42c2.59,6,10.74,2.19,11.18-3,.38-4.54-1.11-8.63-2.3-12.93a87.71,87.71,0,0,1-2.79-15.59c-.92-10.15-.6-20.36-.28-30.52h-12c0,14.25,2.45,29.8,13.78,39.64a6.08,6.08,0,0,0,10.24-4.25,304.93,304.93,0,0,0-1.85-47.67c-.89-7.54-12.8-7.72-12,0a91.37,91.37,0,0,0,8.1,29.43c2.67,5.76,10.92,2.42,11.18-3q.63-13.39.15-26.79h-12A186.75,186.75,0,0,0,102,153.07c1.79,6.66,11.53,5.1,11.78-1.59l.86-23h-12a79.59,79.59,0,0,0,4,28.11c1.47,4.41,8.68,6.47,11,1.43A53.39,53.39,0,0,0,121.5,125c-1.29-6.57-12.34-5.17-11.79,1.6l1.36,16.71,11.79-1.6a116.9,116.9,0,0,1-4.8-18.52l-11,4.63a58.24,58.24,0,0,0,14.45,17c3.67,2.92,10.6,1.47,10.24-4.25a93.31,93.31,0,0,0-2.93-18.26l-11.57,3.19a123.78,123.78,0,0,0,13.63,25.79c3.58,5.14,10.46,2.88,11.18-3l.86-7-11.78,1.59,1,3.09c1.38,4.4,8.79,6.49,11,1.43a22.11,22.11,0,0,0,1.84-7c.65-6.46-8.14-7.41-11.18-3-2.21,3.18-2.51,6.42-1.67,10.13,1.54,6.78,11.55,5,11.78-1.59a94.17,94.17,0,0,0-.3-11.64c-.65-7.58-12.3-7.82-12,0a24.74,24.74,0,0,0,3.6,12.24c4.07,6.72,13.54.85,10.36-6.06L134.9,117.31c-2.84-6.17-13.07-1.8-11,4.62l10.84,33.19L140,171.23c1.31,4,2.12,9.2,6.26,11.3s10.85-1.51,8.81-6.77a290.73,290.73,0,0,1-9.31-28.3c-1.72-6.32-12.44-5.33-11.78,1.59.36,3.86.62,7.72.7,11.59,0,1.51-1,9.18-.17,10,.43.47,1.38-.59.66-1.15-.4-.31-3.17.29-3.67.41a9.16,9.16,0,0,0-5.66,4.28c-1.62,2.54-.72,6.9,2.15,8.21l11.72,5.35,3-11.18c-9.24,0-18,2.82-26.87,4.87a41.78,41.78,0,0,1-12.78,1.39c-.7-.06-2.49-.69-3.1-.5-.9-.46-1.07-.22-.5.73.28,1.22.37,1.22.3,0,.71-2.28.1-6,.14-8.37l-11.18,3c1.83,4.31,5.46,7.06,9.84,8.48a6,6,0,0,0,7.59-5.78l-.57-13.93-11.78,1.59,5,14.15c2.18,6.18,11.78,5.47,11.79-1.6q0-12.57-1.08-25.08h-12a174.29,174.29,0,0,0,3.34,19.66c1.65,7.07,11.1,4.69,11.79-1.6l1.2-10.87-11.79,1.6a176.55,176.55,0,0,0,9.36,25.17c2.79,6.11,13.57,1.68,11-4.62l-8.78-21.21c-2.87-6.94-14.23-4.23-11.57,3.19a25.28,25.28,0,0,0,9.79,12.8c2.45,1.72,7,.64,8.21-2.15a44.62,44.62,0,0,0,4.11-21l-11.78,1.59a186.34,186.34,0,0,0,7.84,26.05c2.73,7.13,14.31,4.06,11.57-3.19a129,129,0,0,1-7.87-32.73l-11.18,3,12.53,23.47c2.77,5.2,11.42,2.88,11.18-3a49,49,0,0,0-3-15.2l-7.38,7.38,2.58.93c4.66,1.69,8.17-3.28,7.38-7.38a44.24,44.24,0,0,0-6.57-16.1,6,6,0,0,0-11,4.62q1.68,8,4.12,15.74l11-4.62a18.57,18.57,0,0,1-1.47-5.21l-11.18,3a39.8,39.8,0,0,1,3.58,6.07c3,6.18,12.87,1.82,11-4.62a159.08,159.08,0,0,0-6.86-18.58c-3.08-7.06-13.42-.95-10.36,6.06A134.22,134.22,0,0,1,124,159.5l11-4.63a40.29,40.29,0,0,0-3.58-6.07c-3-4.23-12-3.52-11.18,3a37.5,37.5,0,0,0,3.11,11.27c2.79,6.21,13,1.8,11-4.63q-2.44-7.77-4.12-15.74l-11,4.63a35.4,35.4,0,0,1,5.36,13.23l7.38-7.38-2.58-.93c-4.13-1.49-8.94,3.22-7.38,7.38a37.79,37.79,0,0,1,2.53,12l11.18-3-12.52-23.47c-2.68-5-11.79-3-11.19,3a141.14,141.14,0,0,0,8.3,35.92l11.57-3.19A186.34,186.34,0,0,1,124,154.88c-1.46-6.54-12.17-5.19-11.79,1.6a31.85,31.85,0,0,1-2.47,15l8.21-2.15a11.5,11.5,0,0,1-4.28-5.63l-11.57,3.19,8.78,21.21,11-4.63a157.77,157.77,0,0,1-8.15-22.3c-2-6.9-11.07-4.86-11.78,1.59l-1.2,10.87L112.46,172a145.92,145.92,0,0,1-2.91-16.47c-.86-7.53-12.69-7.77-12,0q1.1,12.53,1.08,25.08L110.42,179l-5-14.15c-2.13-6-12.08-5.54-11.79,1.6l.57,13.93,7.6-5.79c-1.58-.51-2-1.52-2.66-3-2.46-5.78-11.09-2.42-11.19,3-.09,5.23-1.7,12.76,2.87,16.57,4.13,3.45,11.1,3.86,16.25,3.62,12.17-.58,23.49-6.25,35.69-6.29,5.58,0,8.67-8.61,3-11.18l-11.72-5.35,2.15,8.21c-1.77.91-2.12,1.32-1,1.25a20.14,20.14,0,0,0,2.68-.29,11.1,11.1,0,0,0,3.47-1,9.77,9.77,0,0,0,4.82-6.55c1.79-7.65.57-16.85-.16-24.58l-11.79,1.6a290.73,290.73,0,0,0,9.31,28.3l8.81-6.78q2,3.29.5-.34L151.61,168l-2.48-7.58-4.34-13.27-9.29-28.45-11,4.63,10.63,23.07,10.36-6.06a12,12,0,0,1-2-6.18h-12a94.17,94.17,0,0,1,.3,11.64l11.79-1.6.46-.88-11.18-3-.2.94,11,1.43-1-3.09c-2.15-6.83-11-4.89-11.79,1.6l-.86,7,11.18-3a110.91,110.91,0,0,1-12.42-22.92c-2.75-7-13.6-4.45-11.57,3.19a76.26,76.26,0,0,1,2.5,15.07L130,136.3a49.58,49.58,0,0,1-12.57-14.59c-3.53-6.25-12.08-1.78-11,4.62a118,118,0,0,0,4.79,18.52c2.08,6,12.37,5.56,11.79-1.59l-1.36-16.71-11.78,1.59A39.38,39.38,0,0,1,107.21,152l11,1.44a69.37,69.37,0,0,1-3.59-24.92c.29-7.72-11.71-7.71-12,0l-.86,23,11.79-1.6a168.79,168.79,0,0,1-5.31-30.19c-.61-7.59-12.27-7.81-12,0q.48,13.41-.15,26.79l11.18-3a73.66,73.66,0,0,1-6.46-23.37h-12a304.93,304.93,0,0,1,1.85,47.67l10.25-4.24c-9-7.78-10.29-19.94-10.27-31.15,0-7.74-11.75-7.71-12,0-.32,10.17-.64,20.37.28,30.52A115.09,115.09,0,0,0,81,177.19c1,4.64,3.37,9.41,3,14.21l11.18-3a190,190,0,0,1-13.83-50.43c-1-7.42-11.88-8-12,0l-.16,10.56c-.1,6.57,10.61,8.4,11.78,1.59L85.1,126l-11,1.43a51.9,51.9,0,0,1,3.45,9.73c1.68,6.61,11.74,5.15,11.79-1.59a40.94,40.94,0,0,1,3.55-16.85l-11.18-3,.64,14.53,11.78-1.59a35,35,0,0,1,0-14l-10,2.64q6.54,6.23,12.84,12.67c4.42,4.53,11.14-.22,10-5.84l-2-10.29-7.39,7.38,11.54,4.06c3,1,6.62-1.22,7.38-4.2l2.18-8.56-10,2.65-.33-.82,11.79-1.6a32.46,32.46,0,0,1,.76-20.2H109.26a253.74,253.74,0,0,0,6.56,31.33c1.74,6.31,12.38,5.33,11.78-1.6L125.51,98l-11.18,3,16.86,31.28c3.46,6.41,12,1.67,11-4.63a225.44,225.44,0,0,0-8.23-34.57c-3.56-11-9.75-21.67-11.39-33.13L111,63.12a222.57,222.57,0,0,0,6.67,25c1.7,5.17,10.42,6.22,11.57,0l.49-2.69H118.12a29.25,29.25,0,0,1,.16,14.13l10-2.65a28.59,28.59,0,0,1-8.19-18.71l-11.79,1.6a35.35,35.35,0,0,1,1.49,13.29l10.24-4.25-13.15-14.5c-3.46-3.81-10.43-.85-10.24,4.25q.7,19.05.31,38.12l6-6c-2.21.15-5.31-7.67-6.21-9.52a83.32,83.32,0,0,1-5-13.34C90,81.61,79.36,82.49,80,89.46L80.93,100c.56,6.31,10.19,8.65,11.78,1.59l4.56-20.25-11.78-1.6L83.86,97.56c-.46,5,7,8.15,10.24,4.24L108,85l-9.42-7.28a434.56,434.56,0,0,1-33.27,43.61l9.42,7.27,13.12-31c2.44-5.77-4.32-12.69-9.42-7.27a56.7,56.7,0,0,0-15,30.26H75A235.77,235.77,0,0,1,68.76,83L57,84.56a122.58,122.58,0,0,0,4,15.55,6,6,0,0,0,11.79-1.59,159.82,159.82,0,0,1,2.59-22.78L63.53,74.15a77.15,77.15,0,0,0,5.44,24c2.57,6.27,11.1,5.37,11.79-1.6l2.8-28.4h-12a302.26,302.26,0,0,1-1.85,35.07c-.75,6.67,10.58,8.24,11.78,1.59a177.74,177.74,0,0,1,13-42.2L83.56,58a66.26,66.26,0,0,0,.26,21.54c1,5.46,8.37,5.34,11,1.43A37,37,0,0,0,100,52.73c-1.33-6.66-12-5.11-11.79,1.6l.56,22.12c.16,6.47,10.54,8.51,11.78,1.6a47.13,47.13,0,0,1,5-14.5l-11-1.43c2.06,5.42,3.54,13.78,8.42,17.38,5.22,3.86,11.79.26,12.63-5.84s-2.13-13.59-4.06-19.31a124.63,124.63,0,0,0-8.91-20.13c-2.73-5-11.79-3-11.18,3,1.61,16.17,8.91,30.29,18.15,43.41,3.61,5.13,13.52,2.21,11-4.63a237.35,237.35,0,0,1-12.34-47.35L96.74,31.87,109,62.77c2.8,7.06,14.32,4.09,11.57-3.19L113.37,40.5c-2.76-7.32-12.7-4.41-11.57,3.19,1.38,9.28-7.49,15.89-16.06,13.64l4.19,7.38A68.47,68.47,0,0,1,96.65,52c1.69-2.54,5.79-9.73,9.26-9.63l-4.25-10.24A58.49,58.49,0,0,1,83,47.57a53.58,53.58,0,0,1-11,4.24c-1.05.28-3.8.2-4.62.65-1.94,1.09-2.36,7.41-3.09,9.78H75.9c-3.06-8.48-2.07-18,3.75-25.12H71.16c1.33,1.06,0,5.59-.22,7.26-.62,3.7-1.4,7.38-2.34,11-1.61,6.25-3.08,13.81-8.4,18l9.43,1.22A24.59,24.59,0,0,1,66.14,58h-12l.91,19.17,11.19-3c-3.46-7-8-15.79-4-23.55l-11-1.43a37.4,37.4,0,0,1,1.28,11.82l7.59-5.79-.74-.23,4.19,4.19c-.58-1.66,3-8.4,3.8-10.14A91.22,91.22,0,0,1,73,38.47H62.62c1.24,1.71-.08,4-.81,5.81-2.51,6.25,8.16,10.8,11,4.62a30.38,30.38,0,0,1,15-15.37l-7.27-9.42a184.65,184.65,0,0,1-14.72,15L76,43.38a8.08,8.08,0,0,1,6.89-7.31l-6-6c0,5.22.53,10.78,4.08,14.92,3.39,4,8.74,5.95,13.77,4.14,9.22-3.31,9.74-16,5-23.2C97.22,22,92.46,19.63,87.83,21c-4.41,1.34-8,6.19-6.55,10.9,1.59,5.14,7.89,6.5,12.5,5.32A11.82,11.82,0,0,0,97.13,36l1.19-.59q-4.8-3.06-2.92-.62c.63,2.45,3.86,6,5.22,8.08,3.49,5.39,13.55,2,11-4.62-.78-2-2-4.32-1.56-6.55.23-1.32,1-2.51,1.24-3.85a11.09,11.09,0,0,0-2.76-9.46C103.14,12.47,95.1,13.92,88.05,15,80.34,16.08,72.83,17.81,66,21.66,59.74,25.15,54.26,30,47.22,31.8c-6.38,1.64-5.29,12.42,1.59,11.79,7.27-.67,13.74-3.58,18.34-9.4l-10-5.84c-.51,3.36-3.56,5.08-5.77,7.41A31.08,31.08,0,0,0,44.92,46c-2.88,7.38-3,15.44-1.7,23.15,1.55,9.08,5.27,17.56,8.12,26.27A148.42,148.42,0,0,1,57.57,122c.52,3.91.85,7.8,2.53,11.43.88,1.88,2.36,3.45,3.18,5.35,1,2.18,1.16,4.84,1.7,7.14q1.5,6.39,3.45,12.67a29.87,29.87,0,0,0,2.15,5.72c.87,1.56,2.58,2.58,3.42,4-1.08-1.89-.31,1.77-.22,2.59a19.62,19.62,0,0,0,1.46,5.45c1.81,4.43,3.89,8.52,4.94,13.24.72,3.3.55,7.13,2.26,10.15,2,3.6,5.81,4.68,9.66,5,20.21,1.59,41-3.22,59.42-11.24,6-2.62,2.18-10.71-3-11.18l-2.62-.24,5.78,4.41c.41,1.86-1.9,1.95,0,2.75a6.41,6.41,0,0,0,2,0,16.37,16.37,0,0,0,4.72-.78,10.66,10.66,0,0,0,6.86-8.35c1.54-8.07-3.92-17.07-6.6-24.4a178.93,178.93,0,0,1-7.5-26.76c-1.6-8.09-1.53-16.91-4.93-24.5-3.63-8.1-8.46-15.52-11.73-23.84s-5.67-16.92-8.28-25.44q-4.1-13.41-8.2-26.8c-2.17-7.07-3.44-18.11-10-22.67-7.36-5.11-19.86-.29-27.54,2-4.69,1.38-9.32,3-13.92,4.6-4.35,1.54-8.84,2.55-11.42,6.67l6.78-2.76-3.64-1.07L55.07,26.68c1.31.21,3,1.19,3.39-.44l7.38-4.19c-10.15-3.9-21.77-2.37-27.05,8.11s-1.06,21.26,3.37,31.05c2.05,4.53,8,3.21,10.36,0a17,17,0,0,0,2.93-7.92c.21-1.4.18-2.94.53-4.31.31-1.18,1.28-1.89.14-2.18L51.71,41l-.12,1,1.76-4.24-.7.74,7.27-.94A88.12,88.12,0,0,0,41.3,29.85c-7.44-2.13-10.62,9.45-3.19,11.57Z"/><path class="cls-2" d="M176.37,173.87c5.73-8.38,12.45-16.65,17-25.74,3.91-7.78,6.15-16.74,8.11-25.19a87.25,87.25,0,0,0,1.43-29.49c-1-9.31-1.14-19.31-4.9-28-3.36-7.79-9.86-13.41-13.92-20.75-2-3.58-2.22-7.72-4.11-11.25s-5.7-4.88-8.95-6.94c-7.65-4.85-14.1-10.25-22.8-13.26s-17.41-5.61-26-8.62c-5.36-1.87-8.88,4.49-6.78,8.81,3.07,6.35,6.09,12.69,8,19.49,1.81,6.29,2.86,12.78,4.67,19.07,1.89,6.56,4.26,13,6.45,19.45,1,2.84,1.8,5.76,3,8.51a16.8,16.8,0,0,0,2.34,4l1.09,1.24q2,3,1.79-1.55l9.42,1.21-1.87-2.86c-3.86-5.9-12.08-2-11,4.63,2.32,13.82,4.78,27.75,10.29,40.71,5.16,12.16,10.2,24.7,13.51,37.51.74,2.87,4.4,5.41,7.38,4.19,4.84-2,6.15-5.35,7.63-10.14l5.3-17.1-11.78-1.59.61,8.48c.44,6.17,7.65,7.86,11.18,3a60.28,60.28,0,0,0,11-28.9c.73-6-8.49-8-11.18-3L182,122.3l11,4.62a67.32,67.32,0,0,0,3.58-24.42c-.27-7.15-9.29-7.66-11.79-1.6-7.34,17.87-8.18,38.44-19.82,54.41l11,4.62,4.26-24.3c1.13-6.43,1.8-11.94-3.93-16.24-3.27-2.46-7.74.28-8.81,3.58a59.73,59.73,0,0,0-2.9,17.64h12a61.27,61.27,0,0,0-10.84-30.51c-3.63-5.15-13.44-2.23-11,4.62,2.83,7.85,6,15.57,9.39,23.19,2.77,6.18,13.11,1.79,11-4.63q-8.59-25.77-15.32-52.11l-11.57,3.19a76.13,76.13,0,0,0,18.7,32.34c4.46,4.6,11.05-.26,10-5.83A143.08,143.08,0,0,0,172.34,93c-2-6.07-12.6-5.46-11.79,1.59a85.57,85.57,0,0,0,13.91,38.51c3.45,5.12,10.63,2.91,11.18-3,.86-9.2-2.75-24.94,6-31.5l-8.81-6.77q-4.37,13.69-7.47,27.72l11.78,1.6q0-16.69,1.23-33.33h-12a23.85,23.85,0,0,0,5.31,12.92c2.81,3.59,9.07,1.41,10-2.65a59.75,59.75,0,0,0-.21-28.81c-1.5-5.9-9.88-5.51-11.57,0-1.55,5.06-1.3,10.42-2.74,15.48-1.3,4.59-4.56,8.24-5.33,13.06l11-1.44a109.29,109.29,0,0,1-10.09-32.49c-1-6.66-12.23-5.13-11.79,1.59a47.87,47.87,0,0,0,5.21,19l6.78-8.81c-3.79-1.45-8.15-1.07-10.68,2.41-2.64,3.64-1.28,9.72-1.09,13.92l11.79-1.59c-1.71-7.94-7.11-13.55-11.84-19.83-4.87-6.46-5.61-15-11.4-20.83-3.77-3.76-10.07-.89-10.24,4.25a65.06,65.06,0,0,0,6.21,29.69c2.26,4.9,9.63,3.17,11-1.43,3.08-10.56-6.5-16.65-8.65-26.08-2.28-10-.75-20.82,2.27-30.44l-11.79-1.59,1.74,18.09h12c-.83-7.2-1.07-14.8-2.71-21.86-1.29-5.54-4.22-9.82-9.71-11.73A6,6,0,0,0,134,10.1a10.27,10.27,0,0,0-3.23,9.07A15.5,15.5,0,0,0,132,23.83c.43,1,2.21,3.33,2.05,4.31h11.58a20.55,20.55,0,0,0-5.06-9.08c-3.29-3.58-10.82-1-10.24,4.24,1.44,12.9,11.19,19.75,22,25.2,3.38,1.7,7.8.36,8.82-3.59,1.76-6.8.11-12.93-4.3-18.3L149.61,36c3.2,2.31,6.51,4.7,8.78,8,2,2.92,3.32,6.3,4.87,9.48a122.28,122.28,0,0,0,12.83,20.7c2.57,3.39,8,4.33,10.36,0a19.32,19.32,0,0,0,1.8-4.33l-11.57-3.19q-2.55,9-5.83,17.71l10-2.64c-4.41-5.21-5.73-13.21-7.61-19.59C171,54.62,169,47,166.86,39.43c-1.73-6.28-12.63-5.32-11.79,1.59a93.71,93.71,0,0,1-.69,28.32l11-1.43A230.21,230.21,0,0,1,149.9,35.35c-1.71-4.51-8.33-6.34-11-1.43-6.72,12.48,9.42,20,17.71,25.67,6.4,4.35,12.41-6,6-10.36-1.19-.81-13.6-8.88-13.4-9.26l-11-1.43A248.53,248.53,0,0,0,155,74c2.41,4.21,10,3.78,11-1.43A104.09,104.09,0,0,0,167.07,41l-11.79,1.6c2.45,8.86,4.89,17.72,7.54,26.52,2.27,7.56,4.37,15,9.57,21.1,3.18,3.76,8.59,1.19,10-2.65q3.29-8.73,5.83-17.71c2.12-7.44-9.45-10.61-11.57-3.19l-.59,1.47h10.36a133.18,133.18,0,0,1-14.27-23.73c-3.87-8.19-9.24-13.49-16.51-18.75-5.92-4.28-11.27,4.56-7.27,9.42a7.12,7.12,0,0,1,1.21,6.62l8.81-3.58c-6-3-15.19-7.06-16.06-14.84l-10.24,4.25a7.58,7.58,0,0,1,2,3.78c1.4,5.38,10.64,6.05,11.58,0a14.69,14.69,0,0,0-.58-7.94c-.39-1-.91-2-1.38-3a5.89,5.89,0,0,1-.95-1.95c-.1-.64-.21-.59-.32.14l-5.84,1.54c1.67.58,1.79,6.36,1.94,7.65l1.67,14.37c.88,7.53,12.75,7.74,12,0l-1.74-18.09c-.63-6.56-9.66-8.36-11.79-1.6a75.33,75.33,0,0,0-3.31,30.08,42.35,42.35,0,0,0,3.21,13.11c1.64,3.66,7.71,9.14,6.49,13.33l11-1.43a51.74,51.74,0,0,1-4.57-23.64l-10.24,4.24c2.46,2.46,3.1,5.86,4.33,9a39.1,39.1,0,0,0,5.22,9.42c4,5.35,9.14,10.19,10.6,16.92,1.42,6.58,12.09,5.17,11.78-1.6-.15-3.38-.62-6.92-.2-10.28l-1.76,4.24q-4.58.51-1.46,1.28c5.27,2,8.93-4.59,6.77-8.82a32.91,32.91,0,0,1-3.57-12.92L161.14,67a119.1,119.1,0,0,0,11.3,35.36c2.18,4.38,10.15,3.64,11-1.43.75-4.69,4.07-8.47,5.33-13.06,1.41-5.08,1.19-10.42,2.74-15.48H179.91a46.26,46.26,0,0,1,.21,22.43l10-2.64a9.14,9.14,0,0,1-1.8-4.44c-.84-7.59-11.43-7.83-12,0q-1.18,16.65-1.23,33.33c0,6.62,10.29,8.33,11.79,1.59q3.12-14,7.47-27.72c1.48-4.66-4.56-10-8.82-6.78-13.87,10.42-10.51,26.66-11.92,41.86l11.18-3a72.83,72.83,0,0,1-12.27-32.45l-11.78,1.6a143.08,143.08,0,0,1,4.51,17.91l10-5.84a63.51,63.51,0,0,1-15.62-27c-2.12-7.42-13.48-4.31-11.57,3.19q6.7,26.33,15.32,52.11l11-4.62c-3-6.67-5.7-13.44-8.18-20.32l-11,4.63a49.42,49.42,0,0,1,9.2,24.45c.65,7.59,11.87,7.84,12,0a48.69,48.69,0,0,1,2.47-14.45l-8.82,3.59c-.89-1.52-1.25-1.59-1.07-.22l-.68,3.89L167,141.19l-2.73,15.55c-1.19,6.81,6.9,10.21,11,4.62,12.3-16.86,13.29-38.43,21-57.27l-11.79-1.59a57.41,57.41,0,0,1-3.15,21.23c-2.21,6.45,7.74,10.56,11,4.62l1.4-2.58-11.18-3a48.23,48.23,0,0,1-9.35,22.85l11.19,3-.61-8.48c-.48-6.65-9.72-8.28-11.79-1.6l-3.35,10.8-1.67,5.4-.56,1.8q-1.63,3.15,1,.86l7.38,4.19c-3.27-12.63-8.15-25.14-13.32-37.12-5.64-13.06-8.13-27.13-10.48-41.1L140,88l1.87,2.86c2,3,6.74,4.26,9.42,1.21,2.15-2.44,3.25-5,2.55-8.33-.79-3.77-3.57-5.27-5.28-8.43s-2.51-7.32-3.69-10.8c-1.36-4-2.75-8-4-12-2.4-7.47-3.63-15.21-5.8-22.74-2.24-7.77-5.74-15.1-9.26-22.35L119,16.18c7.51,2.62,15,5.17,22.63,7.53,8.2,2.55,14.24,7,21.22,11.73a43.67,43.67,0,0,0,4.29,2.72c2.41,1.28,2.21,1.22,3,3.85a42.08,42.08,0,0,0,4.44,10.12c3.8,6.22,9.54,11.29,12.49,18,3.34,7.65,3.23,17,4.07,25.22a74.31,74.31,0,0,1-1.65,26.2c-2,8-4,16.53-8.23,23.67-4.65,7.76-10.15,15.09-15.25,22.56-4.37,6.39,6,12.4,10.36,6.05Z"/><path class="cls-3" d="M78.05,190.07,72.25,184c-3-3.1-9.16-1.82-10,2.64l-.43,2.23,8.81-3.58C58.79,180.23,48,171.66,39.17,162.42c-9.4-9.82-14.34-21.82-18.36-34.61-2-6.43-4.34-12.86-4.37-19.68a96,96,0,0,1,2.24-20.48c3-14.12,9.22-26.6,16.21-39.12l-11-4.62c-1.29,6.27,1.21,11.79,3.21,17.65s4.13,11.26,4.65,17.37c.44,5.29,3.71,9.22,4.48,14.36.88,5.75,4.4,10.86,6.11,16.42,3.55,11.55,4.72,23.65,8.8,35.05,4.63,12.94,7.5,26.35,12.21,39.24l8.82-6.77a44.61,44.61,0,0,1-8.9-6.59c-2.58-2.69-3.3-6-4.88-9.27-2.79-5.79-10.79-2.38-11.18,3l-.47,6.45,4.41-5.78,5.4,2.56a14.33,14.33,0,0,1,.79-2.37,24.5,24.5,0,0,1,1.93-3.65c2.4-4-.72-9-5.18-9a9.19,9.19,0,0,0-7.76,3.64c-2,2.35-2,2.19.7,4.71,2.39,2.25,2.17,2.59,4.48,1.25,4.26-2.46,7.11-8.16,4.1-12.69-3.15-4.72-9.51-4.32-13.42-.87-.49.44-2.64,1.94-1.53,2.15-1.12-.21-2-1.87-2.56-2.66-1.83-2.67-3.41-5.56-5.09-8.31l-5.3-8.67c-1.41-2.31-3.6-4.91-4.13-7.58-.63-3.14.05-6.93.23-10.12.19-3.51.46-7,.79-10.52a151.15,151.15,0,0,1,3-20.87c1.46-6.14,5-11.56,4.63-18.05-.45-7.65-12.18-7.78-12,0a66.56,66.56,0,0,0,2.88,18.49c1.79,5.7,4.12,10.94,5.34,16.82,1.3,6.28,4.09,11.85,6.27,17.84a139.1,139.1,0,0,1,5.15,19.18c.35,1.63.57,7.92,1.66,9,4,.95,5.59.5,4.73-1.36-.17-.43-.32-.88-.45-1.33a23.17,23.17,0,0,0-1.46-4.14,96.53,96.53,0,0,0-8.11-16c-3.37-5.48-4.29-9.74-3.81-16.12.46-6,.4-11.18-2-16.81-2.65-6.21-13.22-1.78-11,4.62l7.63,21.65,3.81,10.82a25.09,25.09,0,0,0,1.46,4.2,5.6,5.6,0,0,1,.33,1.5q5.91-1.23,2.8-3.63c-5.14-5.79-13.6,2.72-8.49,8.48,3.29,3.71,8.66,6.11,13.34,3.31,4.52-2.71,4.86-8.27,3.59-12.85C40.51,115.2,35.33,103,31.05,90.91l-11,4.63c2.55,6-.54,13.88.49,20.27,1.08,6.7,5.15,11.94,8.38,17.71a65.32,65.32,0,0,1,4.74,10.6c1,3,1.79,6.26,4,8.6,4.45,4.66,11.61,3.09,14.55-2.32,3.2-5.91-.26-14.91-1.62-21a130.18,130.18,0,0,0-7-22.09c-2.84-6.79-3.64-14-6.25-20.81C34.53,79.07,32.43,72,32.25,64h-12c.23,3.81-1.69,7-2.93,10.48a60,60,0,0,0-2.45,10.67Q13,96.83,12.15,108.65c-.5,6.83-2,15.14,1.07,21.54,3.29,6.79,7.93,13.16,11.86,19.6,3.33,5.45,6.59,11.4,13.4,12.71a11.05,11.05,0,0,0,9.11-2.23,7.74,7.74,0,0,0,1.6-1.53q3.2-3.12-3.71-6.92a9.84,9.84,0,0,0-3.11,1.51c-5.21,3.26-6.2,10.38-1.42,14.52A9.13,9.13,0,0,0,48.67,170a8.23,8.23,0,0,0,3.6-1.83c.69-.55,4.15-3.52,1.85-3.55l-5.19-9c-2.55,4.2-5.37,10-4.45,15,.82,4.5,5.39,7.74,9.89,6.07a6.29,6.29,0,0,0,4.4-5.79l.47-6.45-11.18,3c2.08,4.31,3.32,8.14,6.76,11.7,3.27,3.38,7.34,6,11.32,8.46,4.22,2.63,10.63-1.79,8.81-6.78-4.4-12.05-6.79-24.65-11.26-36.68-4.16-11.19-5.76-22.85-8.82-34.33-1.45-5.45-3.73-10.33-5.88-15.5-1-2.43-.84-4.82-1.52-7.32s-2.13-4.17-3-6.37-.72-4.61-1.07-7a51,51,0,0,0-2.59-9.2l-2.95-8.66C37,53.47,35,49.59,35.49,47.1c1.32-6.41-7.5-10.84-11-4.63C16.91,56.12,10.09,69.94,6.92,85.36a111,111,0,0,0-2.48,22.77c0,8,2.44,15.37,4.8,22.87,4.37,13.9,9.84,27.08,19.7,38,9.64,10.71,22.32,20.93,35.61,26.63,3.24,1.39,8,.62,8.82-3.59l.43-2.23-10,2.65,5.8,6.07c5.34,5.59,13.82-2.9,8.48-8.49Z"/><text class="cls-4" transform="translate(48.43 114.28) scale(0.98 1)">G</text><text></text><text class="cls-5" transform="translate(82.47 173.11) scale(0.98 1)">A</text><circle class="cls-6" cx="104.48" cy="104.48" r="100.98"/><line class="cls-6" x1="112.18" y1="3.79" x2="168.68" y2="182.43"/><line class="cls-6" x1="32.55" y1="33.61" x2="82.47" y2="205.46"/></g></g></svg>