<svg id="Layer_1" data-name="Layer 1" xmlns="http://www.w3.org/2000/svg" viewBox="0 0 276.04 276.04"><defs><style>.cls-1{fill:#fff;}.cls-2{fill:#cbcac7;}.cls-3{fill:#b8dfca;}.cls-4{fill:none;stroke:#231f20;stroke-miterlimit:10;stroke-width:8px;}.cls-5{fill:#fefefe;}.cls-6{font-size:130.1px;fill:#231f20;font-family:MyriadPro-Regular, Myriad Pro;}</style></defs><title>logoGA</title><path class="cls-1" d="M209.57,144.9a32.82,32.82,0,0,0,14.89-4.81,35.33,35.33,0,0,0,10.95-10.92c5.05-7.8-1.51-19.22-10.79-18.81l-3.94.18L227,133.83a199.55,199.55,0,0,1,29.66-15.59l-3,1.26c5.3-2.22,10.68-4.23,16.14-6s11.07-3.62,16.72-4.48l-3.32.45a13.53,13.53,0,0,1,3.18,0l-3.33-.45a8.87,8.87,0,0,1,1.9.5l-3-1.26a8.62,8.62,0,0,1,1.52.91L281,107.18a8.33,8.33,0,0,1,1,1L280,105.64a6,6,0,0,1,.67,1.18l-1.26-3a5.67,5.67,0,0,1,.26,1l-.44-3.32a6.61,6.61,0,0,1,0,1.09l.44-3.33c-.43,2.58-1.39,4.7-1.35,7.46a20.27,20.27,0,0,0,2.42,9.05c1,2.16,2.7,4,3.64,6.18l-1.26-3a7,7,0,0,1,.42,1.57l-.44-3.33a5.47,5.47,0,0,1,0,1.07l.45-3.32a7.33,7.33,0,0,1-.19.81l22.85-3a12,12,0,0,1-1.17-2l1.26,3a12.14,12.14,0,0,1-.75-2.63l.44,3.32a12.15,12.15,0,0,1,0-3.13l-.44,3.32c.06-.39.14-.76.23-1.15l-12.05,9.18a3.14,3.14,0,0,1,.75,0l-3.32-.44a2,2,0,0,1,.42.13l-3-1.26a2.06,2.06,0,0,1,.37.23l-2.53-2a2.67,2.67,0,0,1,.46.49l-1.95-2.53a5.13,5.13,0,0,1,.36.65L284,115a9,9,0,0,1,.55,2.23l-.44-3.33c.11,1,.13,2,.14,3a29.3,29.3,0,0,0,1.11,7.78,82.86,82.86,0,0,0,4.51,11.07c2.57,5.76,5.3,11.46,8.08,17.12,5.58,11.33,11.42,22.53,16.92,33.9,3.07,6.37,6,12.79,8.79,19.3l-1.26-3c2,4.81,3.93,9.68,5.67,14.61L350.92,208a36.5,36.5,0,0,1-3.31-6l1.26,3a35.49,35.49,0,0,1-2.34-8.27l-12.06,15.82.32,0-3.33-.45a7.52,7.52,0,0,1,1.75.46l-3-1.26a7.84,7.84,0,0,1,1.51.88l-2.53-2a9.93,9.93,0,0,1,1.49,1.48l-2-2.53a14.34,14.34,0,0,1,1.76,3l-1.26-3a23.51,23.51,0,0,1,1.46,5.47l-.45-3.33c.54,4.13.65,8.35,1.76,12.38a23.49,23.49,0,0,0,10.12,13.94l9.64-22.84-3.43-1.11A12.61,12.61,0,0,0,338.7,215a12.91,12.91,0,0,0-5.12,6,12,12,0,0,0-.63,8.14l1.26,3a12.55,12.55,0,0,0,4.49,4.49l8.93,6.5-6.2-10.8c-.62,10.3,3,20.45,7.88,29.35,4.06,7.4,9.33,14,13.94,21.06A78.5,78.5,0,0,1,370,294.89l-1.26-3a43.16,43.16,0,0,1,3,10.78l-.44-3.32c.05.42.1.84.14,1.26l3.66-8.84q-2.85,2.4-5.79,4.68l2.53-2a170.58,170.58,0,0,1-37.72,22l3-1.26c-1.62.68-3.24,1.34-4.88,2a15.28,15.28,0,0,0-5.51,3.21,12.29,12.29,0,0,0-3.44,7.18,12.49,12.49,0,0,0,6,12.46,21.46,21.46,0,0,0,6.91,2.66,27,27,0,0,0,10.41-.07l3-1.26,2.53-1.95a12.29,12.29,0,0,0,3.44-7.18,11.89,11.89,0,0,0-.85-6.48,13.14,13.14,0,0,0-5.12-6,15.67,15.67,0,0,0-2.8-1.34,13.16,13.16,0,0,0-2.76-1,20.21,20.21,0,0,0-9.25.12,19.63,19.63,0,0,0-7.7,4.28c-.88.71-1.64,1.55-2.54,2.25l2.53-2a7.9,7.9,0,0,1-1,.6l3-1.26a8.19,8.19,0,0,1-1.61.45l3.32-.45a49,49,0,0,1-6.85-.09c-2.52-.06-5,0-7.56.07a146.93,146.93,0,0,0-17.63,2l14.12,5.74q-16.21-38.2-33.1-76.12c-11.31-25.4-22.83-50.72-34.28-76.07l-19.32-42.77-7.47,18.37,48.49-19.24,6.93-2.74a44.56,44.56,0,0,1,6.75-2.51l-3.33.45a5.29,5.29,0,0,1,1.32,0l-3.33-.45a5.56,5.56,0,0,1,.91.25l-3-1.26a5.62,5.62,0,0,1,.79.46l-2.53-2a7.4,7.4,0,0,1,.9.87l-2-2.53a10.34,10.34,0,0,1,1.31,2.31l-1.26-3a25.92,25.92,0,0,1,1.63,6l-.45-3.33a11.79,11.79,0,0,1,.05,2.45l.45-3.33a8,8,0,0,1-.5,1.92l1.26-3a6.81,6.81,0,0,1-.75,1.28l2-2.53a8,8,0,0,1-1.17,1.16l2.53-2a10.6,10.6,0,0,1-1.73,1l3-1.26a19.52,19.52,0,0,1-4.76,1.18l3.32-.45c-8.7,1.14-17.34,2.25-25.91,4.15q-5.82,1.31-11.57,2.95c-3.74,1.07-7.62,2.3-10.78,4.62-2.6,1.92-5,3.87-6.54,6.81a17.7,17.7,0,0,0-1.74,12.48c1.34,6.2,6.66,10.92,12.64,12.53,4.49,1.2,8.94.84,13.44,0,3.94-.71,7.85-1.64,11.77-2.46l13.6-2.86c4-.85,8.09-1.9,12.17-2.45l-3.32.44a23.39,23.39,0,0,1,5.67-.09l-3.32-.44a12,12,0,0,1,2.7.69l-3-1.26a8.66,8.66,0,0,1,1.8,1l-2.53-2a8.41,8.41,0,0,1,1.26,1.27l-2-2.53a8.82,8.82,0,0,1,.82,1.43l-1.26-3a7.71,7.71,0,0,1,.44,1.63l-.44-3.33a8.27,8.27,0,0,1,0,1.65l.45-3.33a9.84,9.84,0,0,1-.61,2.28l1.26-3a13.93,13.93,0,0,1-1.66,2.77l2-2.53a18.11,18.11,0,0,1-3,2.91l2.53-2a23.53,23.53,0,0,1-5.1,2.83l3-1.26c-6.37,2.61-13.21,3.48-20,4.55a94.26,94.26,0,0,0-9.87,2c-4.9,1.32-9.9,3.13-13.8,6.45A14.77,14.77,0,0,0,230.23,180a17.44,17.44,0,0,0,5.51,8.88,35.24,35.24,0,0,0,12.91,7.21c8.21,2.53,17.27,1.84,25.45-.44a110.89,110.89,0,0,0,11.81-4.26,48.5,48.5,0,0,1,11.15-3.51l-3.32.45a18.28,18.28,0,0,1,4.31-.07l-3.32-.45a13.93,13.93,0,0,1,3,.76l-3-1.26a11.09,11.09,0,0,1,2.46,1.4l-2.53-2a10,10,0,0,1,1.42,1.42l-1.95-2.53a10.73,10.73,0,0,1,1.31,2.21l-1.26-3a12.14,12.14,0,0,1,.83,3.07l-.45-3.32a13.26,13.26,0,0,1,0,3.21l.45-3.32a12.85,12.85,0,0,1-.78,2.79l1.26-3a10.53,10.53,0,0,1-1.29,2.23l1.95-2.53a9.93,9.93,0,0,1-1.63,1.61l2.53-1.95a11.57,11.57,0,0,1-2.2,1.23l3-1.26a17.22,17.22,0,0,1-4,1l3.32-.45c-3.74.48-7.55.39-11.31.64-4.9.34-9.78.89-14.63,1.62a35.34,35.34,0,0,0-12.45,4.18,23.6,23.6,0,0,0-5.79,4.58,26.6,26.6,0,0,0-5.29,8.84,20.85,20.85,0,0,0,1.33,17,21.14,21.14,0,0,0,13.73,10.11,30.18,30.18,0,0,0,16.2-1c3.8-1.28,7.52-2.84,11.27-4.29l25.83-10c3.13-1.2,5.72-2.75,7.47-5.74a12.76,12.76,0,0,0,1.26-9.63A12.59,12.59,0,0,0,319,193c-2.8-1.48-6.54-2.46-9.63-1.26l-21.21,8.19L277.55,204c-3.3,1.27-6.6,2.67-10.12,3.17l3.32-.45a16.23,16.23,0,0,1-3.62,0l3.32.44a12.85,12.85,0,0,1-3.16-.85l3,1.26a11.05,11.05,0,0,1-2.15-1.27l2.53,2a10.63,10.63,0,0,1-1.26-1.25l2,2.53a8.26,8.26,0,0,1-1.08-1.81l1.26,3a9.15,9.15,0,0,1-.51-2l.45,3.32a10,10,0,0,1,0-2l-.44,3.33a11.54,11.54,0,0,1,.72-2.71l-1.26,3a12.83,12.83,0,0,1,1.61-2.78l-1.95,2.53a12.8,12.8,0,0,1,2-2l-2.53,1.95a17.81,17.81,0,0,1,3.91-2.23l-3,1.26a35.36,35.36,0,0,1,8.49-2l-3.32.44q5.63-.74,11.29-1.08c3.93-.24,7.84-.26,11.75-.78,5.32-.72,10.35-2.6,14.24-6.46a22,22,0,0,0,6-10.81,24.86,24.86,0,0,0-.39-12.7,23.3,23.3,0,0,0-9-12.08c-7.48-5.27-17.75-4.34-25.91-1.4-7.47,2.7-14.58,6.23-22.54,7.32l3.32-.44a33.25,33.25,0,0,1-8.28,0l3.33.44a26,26,0,0,1-6.36-1.7l3,1.26a21.47,21.47,0,0,1-4.32-2.47l2.53,1.95a14.44,14.44,0,0,1-2.26-2.09l2,2.53a6.62,6.62,0,0,1-.77-1.31l1.26,3a2.86,2.86,0,0,1-.17-.7l.44,3.33a2.41,2.41,0,0,1,0-.71l-.45,3.32.1-.35-1.26,3a2.46,2.46,0,0,1,.32-.6l-2,2.53a4.58,4.58,0,0,1,.75-.71l-2.53,2a16.49,16.49,0,0,1,2.76-1.37l-3,1.26c7.1-2.92,14.77-3.67,22.27-4.95,9-1.55,18.4-4.25,25.15-10.75a23.49,23.49,0,0,0,7.48-16.22,18.91,18.91,0,0,0-2.76-10,19.33,19.33,0,0,0-7-6.78c-9-4.9-18.89-2.35-28.31-.36l-14.82,3.11c-4.69,1-9.4,2.23-14.14,2.92l3.33-.44a17.77,17.77,0,0,1-4.72.06l3.32.45a10.33,10.33,0,0,1-2.24-.61l3,1.26A6.49,6.49,0,0,1,239,142l2.53,2a5.18,5.18,0,0,1-.75-.73l2,2.53a5.21,5.21,0,0,1-.56-.9l1.26,3a5.34,5.34,0,0,1-.39-1.42l.44,3.32a6.61,6.61,0,0,1,0-.89l-.44,3.32a5.38,5.38,0,0,1,.27-1.12l-1.26,3a7,7,0,0,1,.73-1.28l-2,2.53a10.2,10.2,0,0,1,1.58-1.57l-2.53,2a16.65,16.65,0,0,1,3.27-1.89l-3,1.26a57.29,57.29,0,0,1,7.28-2.25c2.84-.77,5.7-1.47,8.58-2.12q8.5-1.91,17.16-3.06l-3.33.44c4.12-.54,8.47-.63,12.45-1.84a21.22,21.22,0,0,0,6-2.73,19.78,19.78,0,0,0,7.67-9.9c1.75-4.82.95-10.3-.51-15.09-1.59-5.22-4.28-10.06-9.13-12.88a16.57,16.57,0,0,0-12.56-1.51,50.1,50.1,0,0,0-5.39,2l-10.62,4.22L236,119l-24,9.53a12.35,12.35,0,0,0-5.51,3.21,9.4,9.4,0,0,0-2.59,4,9.47,9.47,0,0,0-1.08,4.81,12.48,12.48,0,0,0,1.71,6.31l34.53,76.44c11.4,25.23,22.75,50.48,33.82,75.86q9.28,21.29,18.35,42.66l1.95,2.53a9.49,9.49,0,0,0,4,2.59,6.2,6.2,0,0,0,3.15.85,9.52,9.52,0,0,0,5-.22c1.28-.22,2.56-.41,3.85-.59l-3.32.45a117.46,117.46,0,0,1,17.28-1c3.73.07,7.18.34,10.9-.34a16,16,0,0,0,6.88-3.28c1.33-1,2.51-2.17,3.81-3.23l-2.53,2a8,8,0,0,1,1.29-.77l-3,1.26a9.08,9.08,0,0,1,1.44-.41l-3.32.45a7.32,7.32,0,0,1,1.87,0l-3.32-.45a8.12,8.12,0,0,1,1.45.37l-3-1.26a8.39,8.39,0,0,1,1.32.71l3-22.85c-.27.06-.55.1-.83.14l3.33-.45a13.26,13.26,0,0,1-2.52,0l3.32.44a12.21,12.21,0,0,1-2.84-.72l3,1.26a14.06,14.06,0,0,1-1.51-.74l-3,22.85a181.58,181.58,0,0,0,43.31-23.52q3.48-2.6,6.87-5.3c3-2.37,5.85-4.64,6.93-8.57.79-2.87.2-5.66-.23-8.52-.14-1-.32-1.92-.54-2.87a42.69,42.69,0,0,0-1.56-5.17c-3-8.06-7.3-15.24-12.2-22.26S371.36,251,368,243l1.26,3a43.19,43.19,0,0,1-3-10.62l.45,3.32a32.89,32.89,0,0,1-.29-4.44,25.58,25.58,0,0,0-.16-3.59,12.81,12.81,0,0,0-3.44-7.18,25.61,25.61,0,0,0-3.3-2.51L351.31,215l-9.63,22.85,3.43,1.1a12.58,12.58,0,0,0,9.63-1.26,13,13,0,0,0,5.12-6,12.57,12.57,0,0,0-5.12-15.61c-.28-.18-.55-.37-.82-.57l2.53,2a10,10,0,0,1-1.57-1.61l2,2.53a12.72,12.72,0,0,1-1.28-2.24l1.26,3a24.08,24.08,0,0,1-1.47-6l.45,3.32c-.38-2.92-.6-5.85-1.05-8.76a31.72,31.72,0,0,0-2.74-8.28,14.15,14.15,0,0,0-1.32-2.38,23.84,23.84,0,0,0-3.47-4.22,18.57,18.57,0,0,0-4.38-3.12,22.32,22.32,0,0,0-8.37-2.19c-3.82-.36-7.59,2-9.81,4.92a9.43,9.43,0,0,0-2.24,4.26,12.47,12.47,0,0,0,0,6.64,35.21,35.21,0,0,0,2.09,7.68,49.5,49.5,0,0,0,4.83,9.62c1.76,2.6,4.28,5,7.47,5.75a13,13,0,0,0,8.14-.63,12,12,0,0,0,6-5.12c1.51-2.85,2.38-6.47,1.26-9.63-8.89-25.16-21.76-48.55-33.45-72.46-3.17-6.49-6.29-13-9.11-19.68l1.26,3a26.51,26.51,0,0,1-2-6.52l.45,3.32c-.36-3.25,0-6.52-1-9.72a17.25,17.25,0,0,0-4.19-7.22,14.07,14.07,0,0,0-6.07-3.55,13.61,13.61,0,0,0-4.4-.55l-3.32.45a9.33,9.33,0,0,0-4.25,2.23,12.05,12.05,0,0,0-4.48,6.5c-1.53,6.15-.8,13.31,2.95,18.58a15,15,0,0,0,4.49,4.49,12.38,12.38,0,0,0,8,1.48,12.56,12.56,0,0,0,10.39-8.95c1.45-4.88.35-9.89-2.05-14.23-1-1.81-2.35-3.41-3.21-5.3l1.26,3a8,8,0,0,1-.55-1.91l.45,3.32a6.1,6.1,0,0,1,0-1.13l-.45,3.32a12.48,12.48,0,0,1,.5-2,20.78,20.78,0,0,0,.84-4.9,16.69,16.69,0,0,0-2.27-9,18.5,18.5,0,0,0-12.24-8.72,26.74,26.74,0,0,0-10.28.13c-1.5.25-3,.63-4.44,1q-4.23,1.08-8.41,2.34a216,216,0,0,0-35.12,14.15c-5.85,3-11.55,6.23-17.08,9.76a12.87,12.87,0,0,0-5.11,6,12,12,0,0,0-.63,8.14,14.82,14.82,0,0,0,3.21,5.52,12.58,12.58,0,0,0,8.84,3.66l3.94-.18-10.79-18.8q-.51.78-1.08,1.53l2-2.53a22.45,22.45,0,0,1-3.71,3.71l2.53-2a22.66,22.66,0,0,1-4.85,2.84l3-1.26a21.64,21.64,0,0,1-5,1.4l3.32-.44-.37.05a13.8,13.8,0,0,0-8.84,3.66,12.51,12.51,0,0,0,0,17.68c2.25,2.07,5.65,4.08,8.84,3.66Z" transform="translate(-158.29 -79.44)"/><path class="cls-1" d="M254.66,227.54a62.81,62.81,0,0,0,6.46,19.38c2.7,5.28,6.67,9.83,9,15.29l-1.26-3a60.68,60.68,0,0,1,2.84,10.45,66.24,66.24,0,0,0,3.14,10.49,192.78,192.78,0,0,0,11,22.78,148.13,148.13,0,0,0,12.82,20c4.79,6.09,11.5,11.31,19.17,13.08,9.72,2.23,19.62-.16,28.09-5.15A98.4,98.4,0,0,0,356.86,323c3-2.4,6-4.84,9-7.26,4.06-3.25,7.86-7,8.82-12.4a24.11,24.11,0,0,0-.48-10.55,42.57,42.57,0,0,0-1.76-5.25,80.31,80.31,0,0,0-5.75-11.7c-1.75-2.89-3.65-5.69-5.55-8.48A245.1,245.1,0,0,1,338,225.21l1.26,3a238,238,0,0,1-9.43-26.68,12.55,12.55,0,0,0-10.4-9,11.86,11.86,0,0,0-6.47.85,12.09,12.09,0,0,0-6,5.11,19.6,19.6,0,0,1-1.48,2.3l1.95-2.53a19.94,19.94,0,0,1-3.55,3.56l2.53-2a25.12,25.12,0,0,1-5,2.89l3-1.26a31.14,31.14,0,0,1-7.76,2.08l3.32-.45a35.63,35.63,0,0,1-6.69.23c-1.1-.07-2.18-.25-3.28-.3a17.16,17.16,0,0,0-9,2.27c-5.33,3-7.95,9.25-7.81,15.19a81.77,81.77,0,0,0,1.47,11.77c1,6,2.34,11.94,3.54,17.9,1.29,6.43,2.3,13.27,6.34,18.66a37.43,37.43,0,0,0,4.31,5.09,66,66,0,0,0,5.39,4.34c2.26,1.72,4.64,3.29,6.9,5l-2.53-2a65.61,65.61,0,0,1,11.68,11.69l-2-2.53a65.6,65.6,0,0,1,8.33,14.27l-1.26-3c.16.38.31.75.46,1.13l5.75-14.12-11.88,5.33-2.53,2-2,2.53a12.32,12.32,0,0,0-1.49,8c.69,5.08,4.16,8.75,9,10.39,13.29,4.54,28.75,2.75,40.87-4.22,4.4-2.53,8.22-5.86,10.23-10.6a17,17,0,0,0,1.53-7.72,20.36,20.36,0,0,0-2.83-9.44c-2.45-4.12-5.76-6.87-9.51-9.71q-3.72-2.82-7.7-5.32a117.72,117.72,0,0,0-21-10.11V284a18.57,18.57,0,0,0,7.69-4.62,19.39,19.39,0,0,0,4.47-7.76,21.93,21.93,0,0,0-.17-12.81,28.13,28.13,0,0,0-7.55-11.53c-2.22-2.13-4.65-4-6.56-6.46l2,2.53a19.9,19.9,0,0,1-2.45-4.3l1.26,3c-1.86-4.59-2.31-9.55-3.13-14.39a41,41,0,0,0-1.68-6.91,43.15,43.15,0,0,0-2.58-6,37.27,37.27,0,0,0-3.8-5.29l-2.53-1.95-3-1.26a12.38,12.38,0,0,0-8.14.63,12,12,0,0,0-5,3.85,11.81,11.81,0,0,0-2.68,7.57,85.51,85.51,0,0,0,5.6,26.73c1.66,4.2,3.38,8.61,6,12.35a29,29,0,0,0,9.16,9.18,31.27,31.27,0,0,0,5,2.27,12.47,12.47,0,0,0,6.64,0,13.92,13.92,0,0,0,7.47-5.74,12.48,12.48,0,0,0,1.71-6.31,96.54,96.54,0,0,0-3.43-16.94A113.33,113.33,0,0,0,322,224c-4.38-8.83-9.4-17.37-14.18-26-9.4-16.95-18.54-34.11-29.32-50.24-3.23-4.83-6.5-9.86-10.5-14.1-4.95-5.26-11.45-8.69-18.75-8.9a12.33,12.33,0,0,0-10.79,6.19c-4.34,8.37-4.88,17.81-2.5,26.87,2,7.59,6,14.62,9.51,21.57L265.76,219l11.62,22.69a12.51,12.51,0,0,0,17.11,4.48,12.57,12.57,0,0,0,5.74-7.47A13.68,13.68,0,0,0,299,229L268.9,170.3c-2.67-5.21-5.51-10.36-7.83-15.74l1.26,3a41.52,41.52,0,0,1-3-10.18l.45,3.32a27,27,0,0,1,0-7.13l-.45,3.32a21.83,21.83,0,0,1,1.31-4.81l-1.26,3c.22-.51.46-1,.72-1.51l-10.8,6.19c.37,0,.73,0,1.1.07l-3.32-.45a12.63,12.63,0,0,1,2.76.73l-3-1.26a15.48,15.48,0,0,1,3.42,2l-2.52-2a30.6,30.6,0,0,1,5,5.19l-2-2.53c8.11,10.54,14.87,22.24,21.43,33.78,6.9,12.12,13.58,24.36,20.34,36.55,3.76,6.79,7.64,13.53,10.68,20.68l-1.26-3a79.46,79.46,0,0,1,5.45,20l-.44-3.32.06.47,15.82-12.05-.34-.15,3,1.26a13.58,13.58,0,0,1-2.52-1.49l2.53,1.95a17.89,17.89,0,0,1-3.11-3.16l2,2.53a41.28,41.28,0,0,1-4.78-8.78l1.26,3a75.94,75.94,0,0,1-5.19-19l.44,3.32c-.26-2-.45-3.94-.56-5.93l-21.34,8.84.22.28-1.95-2.53a19.59,19.59,0,0,1,2.44,4.2l-1.26-3c2.61,6.3,2.46,13.27,4.33,19.77a34.66,34.66,0,0,0,7.53,13.72c2.53,2.85,5.71,5,8.11,8L311.62,265a12.74,12.74,0,0,1,1.56,2.54l-1.26-3a12,12,0,0,1,.81,2.93l-.45-3.32a11.53,11.53,0,0,1,0,2.69l.44-3.32a9.2,9.2,0,0,1-.5,1.92l1.26-3a7.23,7.23,0,0,1-.8,1.41l1.95-2.53a6.56,6.56,0,0,1-.95.95l2.53-2a6.18,6.18,0,0,1-1.2.68l3-1.26-.27.1a13.41,13.41,0,0,0-6.49,4.48,11.9,11.9,0,0,0-2.69,7.57,14.83,14.83,0,0,0,1.71,6.31c1.56,2.95,4.49,4.62,7.47,5.74,1.25.47,2.49,1,3.73,1.48l-3-1.26a102.32,102.32,0,0,1,22.31,13l-2.53-1.95a22.08,22.08,0,0,1,3.77,3.65l-1.95-2.53a13.39,13.39,0,0,1,1.43,2.32l-1.26-3a9.14,9.14,0,0,1,.59,2.12l-.45-3.33a7,7,0,0,1,0,1.45l.45-3.32a8.31,8.31,0,0,1-.43,1.45l1.26-3a8.9,8.9,0,0,1-.79,1.29l2-2.53a11.49,11.49,0,0,1-1.66,1.61l2.53-2A31.53,31.53,0,0,1,337,293.2l3-1.26a40,40,0,0,1-9.85,2.67l3.32-.45a40,40,0,0,1-10.2,0l3.32.44a38.26,38.26,0,0,1-7.16-1.7l3,22.85,11.88-5.33,2.53-2a9.38,9.38,0,0,0,2.58-4c1-2.35,1.62-5.68.63-8.14a83.75,83.75,0,0,0-6.15-12.72,86,86,0,0,0-8.15-11,64.54,64.54,0,0,0-7.8-7.62c-3.6-3-7.47-5.52-11.17-8.34l2.53,1.95a28.53,28.53,0,0,1-5.06-4.82l2,2.53a17.75,17.75,0,0,1-2.25-3.89l1.26,3a44.06,44.06,0,0,1-2-7.66l-1.7-8.49c-1.13-5.62-2.39-11.24-3.19-16.92l.45,3.33a26,26,0,0,1-.4-6.81l-.45,3.32a6.45,6.45,0,0,1,.37-1.28l-1.26,3a3.5,3.5,0,0,1,.32-.56l-2,2.53a4.5,4.5,0,0,1,.68-.7l-2.53,1.95a2.76,2.76,0,0,1,.65-.36l-3,1.26a5.69,5.69,0,0,1,1.08-.27l-3.33.44a33.72,33.72,0,0,1,4.6.28,35.12,35.12,0,0,0,4.23,0,44.82,44.82,0,0,0,11.43-2c8-2.72,15.27-7.68,19.45-15.23l-22.85-3A249.86,249.86,0,0,0,339,279.08c3.86,5.67,7.8,11.35,10.49,17.69l-1.26-3a33.21,33.21,0,0,1,2.36,7.79l-.44-3.32a10.24,10.24,0,0,1,0,1.75l.45-3.32a6.79,6.79,0,0,1-.42,1.59l1.26-3a8.42,8.42,0,0,1-.78,1.33l1.95-2.53c-1.92,2.42-4.72,4.22-7.11,6.14-2.58,2.07-5.14,4.15-7.74,6.18l2.53-2a53.6,53.6,0,0,1-11.25,7l3-1.26a28.82,28.82,0,0,1-7.1,2l3.32-.45a22.09,22.09,0,0,1-5.57,0l3.33.44a19.23,19.23,0,0,1-4.59-1.29l3,1.26A22.65,22.65,0,0,1,320,309.5l2.53,1.95a35.59,35.59,0,0,1-6.34-6.52l2,2.53A138.4,138.4,0,0,1,307.84,291a195.07,195.07,0,0,1-9.43-18.72l1.26,3a65.52,65.52,0,0,1-3.59-11.09A74.32,74.32,0,0,0,293.17,253a65.07,65.07,0,0,0-6.58-12.22A61.93,61.93,0,0,1,281,230.69l1.26,3a53.38,53.38,0,0,1-3.52-12.78c-.42-2.88-3.36-6.07-5.75-7.47a12.5,12.5,0,0,0-17.1,4.48l-1.26,3a12.71,12.71,0,0,0,0,6.65Z" transform="translate(-158.29 -79.44)"/><path class="cls-2" d="M311.12,106.84c16.72,7,33.46,13.91,50.15,21l-3-1.26a23.25,23.25,0,0,1,4.56,2.44l-2.53-2a14.59,14.59,0,0,1,2.55,2.6l-1.95-2.53c2.11,2.82,3.9,5.8,6.14,8.55a53.2,53.2,0,0,0,5.86,6,89.63,89.63,0,0,1,11.42,11.63l-2-2.53a63.37,63.37,0,0,1,8,13.7l-1.26-3c1.23,2.91,2.08,5.94,3.27,8.86a30.21,30.21,0,0,0,3.29,6.64c1.59,2.18,3.39,4.06,5.07,6.14l-1.95-2.53a19.12,19.12,0,0,1,2.41,4.15l-1.26-3a40,40,0,0,1,2.32,9.9l-.45-3.33c1,7.72,2.05,15.45,2.84,23.2a98.84,98.84,0,0,1,.05,23.19l.44-3.33a137.16,137.16,0,0,1-6.34,24.82c-2.83,8.39-5.82,16.72-8.74,25.08H414.2q-14.56-35.34-29.12-70.68c-5.14-12.46-10.25-24.93-15.94-37.15q-7.78-16.71-16.12-33.17c-6.09-12.08-12.58-24-20.37-35l-14.12,18.36a24.83,24.83,0,0,1,4.62,1.39l-3-1.26a32.44,32.44,0,0,1,6.93,4.14l-2.53-2c5.54,4.32,9.78,9.92,14.48,15.07a71.22,71.22,0,0,0,9.9,8.87c3,2.29,6.28,4.23,9.28,6.55l-2.53-2a51.49,51.49,0,0,1,8.62,9l-1.95-2.53a146.7,146.7,0,0,1,18.74,32.3l-1.26-3A148.64,148.64,0,0,1,390,227.38l-.45-3.32c.79,5.89,1.45,11.92.72,17.85l.45-3.33-.06.47L409,231.58c-.21-.15-.43-.31-.63-.47l2.53,2a26.28,26.28,0,0,1-4.39-4.43l1.95,2.53a37.85,37.85,0,0,1-4.68-8.23l1.26,3c-3.17-7.61-4.34-15.82-7-23.6a75.51,75.51,0,0,0-6.47-14.06,98.72,98.72,0,0,1-6-11l1.26,3c-1.67-4-2.83-8.18-4.34-12.23a67.64,67.64,0,0,0-3.63-8.39,40.06,40.06,0,0,0-5.37-7.5A12.5,12.5,0,0,0,352.26,161a13.74,13.74,0,0,0,3.66,8.84c.35.4.68.8,1,1.21l-2-2.53a31.74,31.74,0,0,1,3.84,6.78l-1.26-3c2.58,6.16,4.26,12.61,7,18.7,2.68,5.93,6.67,11.15,9.24,17.13l-1.26-3c3.21,7.63,4.36,15.89,7,23.7a59.59,59.59,0,0,0,5.56,12.38,47.9,47.9,0,0,0,5,6.6,39.86,39.86,0,0,0,6.3,5.36c3.13,2.3,7.76,2.05,11.13.63a9.29,9.29,0,0,0,4-2.58,12.44,12.44,0,0,0,3.21-5.52,65,65,0,0,0,.83-9.22c0-2.14-.16-4.27-.35-6.4-.45-4.83-1.1-9.66-1.92-14.44a146.83,146.83,0,0,0-5.65-22.25A157,157,0,0,0,385.29,150c-3.23-4.34-6.53-8.79-10.68-12.31s-9-6.4-13.4-9.78l2.53,2c-6.07-4.78-10.57-11.09-15.88-16.62-6.1-6.34-13.88-12.13-22.68-13.85a14.5,14.5,0,0,0-6.65,0A12.45,12.45,0,0,0,312,103.9a11.8,11.8,0,0,0-2.46,5.91c-.35,2.58-.07,5.76,1.48,8A263.34,263.34,0,0,1,330,149.92q8.58,16.79,16.57,33.89,4.68,9.94,9,20.07l-1.26-3c9.55,22.65,18.77,45.45,28.13,68.18l7.74,18.78,1.26,3a9.51,9.51,0,0,0,3.22,3.5,11.94,11.94,0,0,0,7.57,2.69,14.79,14.79,0,0,0,6.31-1.71c2.89-1.52,4.71-4.51,5.75-7.47,2.71-7.75,5.46-15.5,8.12-23.27a157.74,157.74,0,0,0,6.37-22.88A101.74,101.74,0,0,0,430,215.35c-.66-8.19-1.85-16.33-2.86-24.48-.6-4.76-1-9.74-2.54-14.32a32.3,32.3,0,0,0-3.52-7.67c-1.69-2.51-3.77-4.61-5.65-6.94l1.95,2.53a17.49,17.49,0,0,1-2.08-3.64l1.26,3c-.86-2.08-1.48-4.23-2.26-6.33-1.06-2.84-2.24-5.65-3.56-8.38a64,64,0,0,0-6.55-10.7A81.58,81.58,0,0,0,394,126.93c-3.29-3-6.73-5.81-9.51-9.3l2,2.53c-1.21-1.57-2.21-3.27-3.34-4.88a30,30,0,0,0-8-8.14c-2.56-1.77-5.62-2.8-8.46-4l-6.69-2.8L333,89.09l-15.22-6.36c-2.78-1.16-7.17-.18-9.64,1.26a12.5,12.5,0,0,0-4.48,17.1l2,2.53a12.55,12.55,0,0,0,5.52,3.22Z" transform="translate(-158.29 -79.44)"/><path class="cls-3" d="M184.83,158.51a5.14,5.14,0,0,1,.66.66l-2-2.53a5.17,5.17,0,0,1,.45.79l-1.26-3a5.43,5.43,0,0,1,.31,1.2l-.45-3.33a7,7,0,0,1,0,1.29l.44-3.32a7.39,7.39,0,0,1-.53,1.89l1.26-3a8.51,8.51,0,0,1-.95,1.51l2-2.53a30.8,30.8,0,0,1-4.09,3.73,35.73,35.73,0,0,0-5.32,6.06c-2.76,3.71-4.53,8.12-6.14,12.42a119.51,119.51,0,0,0-6.15,26.52,135.32,135.32,0,0,0,3.56,51,166.36,166.36,0,0,0,19.78,45.69c4.61,7.45,9.79,14.85,16.16,20.92s14.05,11,21.76,15.46c14.74,8.43,30.25,16.1,46.66,20.66,2,.55,3.95,1,5.94,1.49a12.66,12.66,0,0,0,13.14-4.48,12,12,0,0,0,2.46-5.91,13.23,13.23,0,0,0-1.49-8Q277.3,305.39,263.55,277c-8.9-18.38-17.78-36.78-26.28-55.35q-7.2-15.74-14-31.68l1.26,3q-5.55-13.16-10.68-26.49l-1.26-3a9.38,9.38,0,0,0-3.22-3.51,11.89,11.89,0,0,0-7.57-2.68,14.79,14.79,0,0,0-6.31,1.71c-2.91,1.53-4.67,4.5-5.74,7.47a164.16,164.16,0,0,0-8.57,38.61,140.17,140.17,0,0,0,1.39,39.6,128.36,128.36,0,0,0,11.13,32.86,184.83,184.83,0,0,0,30.59,43c5.38,5.55,11.92,10.64,19.61,12.39,3.11.7,6.86.52,9.63-1.26a13.69,13.69,0,0,0,5.74-7.47,31.13,31.13,0,0,0,1.16-6.29,19,19,0,0,0,.11-3.69,35,35,0,0,0-2-10,52.53,52.53,0,0,0-4.41-9.16c-1.32-2.11-2.79-4.12-4.27-6.12a208.18,208.18,0,0,1-16.31-25.72q-4-7.58-7.34-15.48l1.26,3a198.32,198.32,0,0,1-11.9-39.41c-.56-2.93-3.24-6-5.74-7.47a12.81,12.81,0,0,0-9.63-1.26,12.62,12.62,0,0,0-7.47,5.75,14,14,0,0,0-1.26,9.63,204.92,204.92,0,0,0,31.73,76.49c4.15,6.08,9.25,11.76,12.17,18.59l-1.26-3a26.16,26.16,0,0,1,1.74,6.37l-.44-3.32a20.11,20.11,0,0,1,0,4.78l.45-3.32a18.76,18.76,0,0,1-.71,3l15.37-8.73a20.9,20.9,0,0,1-3.44-1.11l3,1.26a27.28,27.28,0,0,1-5.5-3.34l2.53,1.95a73.81,73.81,0,0,1-9.08-8.95q-4.29-4.8-8.25-9.91l2,2.53a146.55,146.55,0,0,1-19.18-32.39l1.26,3A113.63,113.63,0,0,1,206,233.43l.44,3.32a136.63,136.63,0,0,1,.29-35.91l-.45,3.32a152.55,152.55,0,0,1,7.61-31.08h-24.1c9,23.47,19.07,46.51,29.65,69.29,10.3,22.19,21.05,44.18,31.7,66.2l18.32,37.85,14.11-18.37a137.79,137.79,0,0,1-23.24-7.58l3,1.26a229.64,229.64,0,0,1-21-10.31,151.58,151.58,0,0,1-19.65-12.27l2.53,2a68.32,68.32,0,0,1-11.86-12l1.95,2.53a150.83,150.83,0,0,1-18.89-33l1.26,3a141.32,141.32,0,0,1-9.94-35.9l.45,3.32a123.27,123.27,0,0,1-.07-32.11l-.45,3.33a101.76,101.76,0,0,1,6.7-25.69l-1.26,3a33.85,33.85,0,0,1,4-7.11L195.12,173a25.66,25.66,0,0,1,4-4,26.48,26.48,0,0,0,5.72-6.26c4.13-6.39,3.78-16.75-2.37-21.83-2.63-2.17-5.31-3.66-8.84-3.66a12.71,12.71,0,0,0-8.84,3.66,12.56,12.56,0,0,0-3.66,8.84c.14,3.12,1.14,6.76,3.66,8.83Z" transform="translate(-158.29 -79.44)"/><circle class="cls-4" cx="138.02" cy="138.02" r="134.02"/><line class="cls-4" x1="138.02" y1="272.04" x2="36.59" y2="51.48"/><line class="cls-4" x1="241.24" y1="224.57" x2="139.81" y2="4.01"/><path class="cls-5" d="M192.83,167.93c.47,4.18-.13,8.4.39,12.57a20.16,20.16,0,0,0,1.62,6.05c.79,1.72,2.06,3.81,4,4.35a3.29,3.29,0,0,0,3.36-1,5.47,5.47,0,0,0,1-3.66,10.68,10.68,0,0,0-6.11-9.68c-2-.92-4.84-1.73-6.19.58-1.05,1.82-.6,4.77,0,6.67a12.62,12.62,0,0,0,3.49,5.49l2.43-4.18-.66-.2c-3.08-1-4.39,3.86-1.33,4.82l.66.2c2.35.74,4.28-2.5,2.44-4.17a7.68,7.68,0,0,1-2.11-3,9.5,9.5,0,0,1-.45-1.76c0-.31,0-.62,0-.93s0-.42,0-.62c0-.45,0-.42-.06.08l-.9.89c-.24.16-1.49-.09-.74.18.25.09.52.14.77.22a6.05,6.05,0,0,1,1,.49,5.77,5.77,0,0,1,1.65,1.46,5.34,5.34,0,0,1,1,4.69l.64-1.1.1,0L200,186c.7-.09.53.57.28,0a6.1,6.1,0,0,0-.54-.82,9.09,9.09,0,0,1-.83-1.79,17.34,17.34,0,0,1-.86-4.39c-.25-3.69.18-7.4-.24-11.08a2.57,2.57,0,0,0-2.5-2.5,2.52,2.52,0,0,0-2.5,2.5Z" transform="translate(-158.29 -79.44)"/><path class="cls-3" d="M200.19,199.92a32.12,32.12,0,0,0,7.26-11.9,18.59,18.59,0,0,0,1.16-7.29,26,26,0,0,0-.82-5.11,16.75,16.75,0,0,1-.46-2l.44,3.32a5.8,5.8,0,0,1,0-1.25l-.45,3.32.05-.25a9.48,9.48,0,0,0,.22-5,9.25,9.25,0,0,0-1.48-4.65,14,14,0,0,0-7.47-5.75,12.65,12.65,0,0,0-9.63,1.26c-2.6,1.68-5.17,4.31-5.75,7.47a31.17,31.17,0,0,0-.52,3.83q0,.31,0,.63a28,28,0,0,0,.62,4.45c.21.93.52,1.84.67,2.79l-.45-3.33a6.74,6.74,0,0,1,0,1.68l.45-3.32a15.3,15.3,0,0,1-1,3.38l1.26-3a18.67,18.67,0,0,1-2.35,4l2-2.53a20.1,20.1,0,0,1-1.36,1.55,12.93,12.93,0,0,0-3.66,8.84,13.8,13.8,0,0,0,3.66,8.84,12.6,12.6,0,0,0,8.84,3.66,12.9,12.9,0,0,0,8.83-3.66Z" transform="translate(-158.29 -79.44)"/><text class="cls-6" transform="translate(66.29 123.56) scale(1.01 1)">G</text><text class="cls-6" transform="translate(120.53 215.52) scale(1.01 1)">A</text></svg>